<svg width="237" height="113" viewBox="0 0 237 113" fill="none" xmlns="http://www.w3.org/2000/svg">
<path d="M126.693 97.5416C117.68 98.1442 110.056 112.85 106.293 112.407C102.53 111.964 103.08 94.4792 95.4692 89.6036C61.8383 68.0582 53.9542 83.6872 52.6616 81.0799C51.369 78.4725 56.1933 74.8795 44.5928 58.9771C32.1346 41.899 3.66536 37.1107 0.218197 33.542C-3.22896 29.9732 34.9501 4.60651 59.5204 0.258566C65.5581 -0.809854 74.7774 1.77827 74.7774 1.77827C74.7774 1.77827 79.5961 20.8576 88.0748 26.3898C93.945 30.22 103.197 36.1317 103.197 36.1317C103.197 36.1317 107.486 13.8051 111.303 15.7821C115.121 17.759 114.04 26.1836 118.87 28.3213C125.022 31.0436 128.696 31.9775 135.401 32.5237C140.666 32.9526 142.882 26.1692 148.038 25.1208C153.193 24.0723 147.278 47.3382 147.278 47.3382C147.278 47.3382 157.311 46.3293 163.38 45.5342C173.471 44.2119 186.817 30.2614 186.817 30.2614C186.817 30.2614 197.373 30.8606 202.147 35.3382C221.094 53.1085 239.55 90.6559 236.235 93.5433C232.921 96.4307 206.179 89.9108 187.574 96.506C168.232 103.363 170.324 109.513 167.456 110.263C164.588 111.014 163.494 95.081 126.693 97.5416Z" fill="#192043"/>
</svg>
