<svg width="504" height="390" viewBox="0 0 504 390" fill="none" xmlns="http://www.w3.org/2000/svg">
<g filter="url(#filter0_d_193_1902)">
<path d="M282.449 307.508C266.687 315.298 259.776 360.097 252.882 361.479C245.987 362.862 239.058 315.424 223.315 307.508C153.745 272.529 146.788 319.991 143.309 313.858C139.831 307.724 146.788 294.752 118.96 259.887C89.075 222.444 36.2656 229.036 28.5195 221.789C20.7734 214.542 77.2183 120.14 118.96 91.6235C129.217 84.6163 146.788 85.274 146.788 85.274C146.788 85.274 163.988 133.331 181.573 142.42C193.748 148.713 212.879 158.294 212.879 158.294C212.879 158.294 210.412 95.2641 218.097 97.9731C225.782 100.682 227.669 124.098 237.229 126.546C249.403 129.664 256.36 129.664 268.535 126.546C278.095 124.098 278.97 104.323 287.667 97.9731C296.363 91.6235 296.363 158.294 296.363 158.294C296.363 158.294 313.755 148.713 324.191 142.42C341.544 131.956 358.975 85.274 358.975 85.274C358.975 85.274 378.025 79.6636 388.543 88.4488C430.284 123.314 480.095 211.75 475.505 221.789C470.914 231.829 420.394 232.579 390.282 263.061C358.975 294.752 365.478 309.875 360.715 313.858C355.952 317.84 346.801 275.704 282.449 307.508Z" fill="#192043"/>
</g>
<path d="M298.73 51.7001L305.228 78.2144L304.394 86.3118L273.206 83.107L274.04 75.0096L294.796 77.1461L277.888 0.359497L288.597 1.44912L296.485 42.6413C298.078 42.6413 299.082 42.0858 299.499 40.9748C299.911 39.8638 300.183 38.662 300.311 37.3641L303.86 3.03015L313.8 4.05568L310.252 38.3896C309.92 41.6104 308.958 44.5214 307.366 47.128C305.784 49.7345 302.903 51.2622 298.73 51.7001Z" fill="black"/>
<path d="M267.313 43.0914L256.496 44.7578L257.715 0.019043L268.489 0.318156L267.313 43.0914Z" fill="black"/>
<path d="M234.614 0.256383L245.26 0L247.205 82.7689L236.559 83.0253L234.614 0.256383Z" fill="black"/>
<path d="M218.073 94.355L211.04 1.71532L221.643 0.924805L228.676 93.5645L218.073 94.355Z" fill="black"/>
<path d="M209.868 85.0584L197.641 86.6395L196.08 74.4185L208.307 72.8375L209.868 85.0584ZM203.027 31.6881L204.588 43.8022L192.361 45.3832L190.8 33.2691L203.027 31.6881Z" fill="black"/>
<defs>
<filter id="filter0_d_193_1902" x="4.95911e-05" y="55.7091" width="503.6" height="333.6" filterUnits="userSpaceOnUse" color-interpolation-filters="sRGB">
<feFlood flood-opacity="0" result="BackgroundImageFix"/>
<feColorMatrix in="SourceAlpha" type="matrix" values="0 0 0 0 0 0 0 0 0 0 0 0 0 0 0 0 0 0 127 0" result="hardAlpha"/>
<feOffset/>
<feGaussianBlur stdDeviation="13.9"/>
<feComposite in2="hardAlpha" operator="out"/>
<feColorMatrix type="matrix" values="0 0 0 0 0 0 0 0 0 0 0 0 0 0 0 0 0 0 0.25 0"/>
<feBlend mode="normal" in2="BackgroundImageFix" result="effect1_dropShadow_193_1902"/>
<feBlend mode="normal" in="SourceGraphic" in2="effect1_dropShadow_193_1902" result="shape"/>
</filter>
</defs>
</svg>
