<svg width="452" height="375" viewBox="0 0 452 375" fill="none" xmlns="http://www.w3.org/2000/svg">
<circle cx="131.941" cy="131.941" r="129.941" transform="matrix(-1 0 0 1 357.351 52.5299)" stroke="#192043" stroke-width="4"/>
<rect width="2.74088" height="18.2725" rx="1.37044" transform="matrix(-0.210986 0.977489 0.977489 0.210986 90.3801 147.885)" fill="#192043"/>
<rect width="2.74088" height="18.2725" rx="1.37044" transform="matrix(0.977489 0.210986 0.210986 -0.977489 183.844 318.657)" fill="#192043"/>
<rect width="2.74088" height="18.2725" rx="1.37044" transform="matrix(0.210986 -0.977489 -0.977489 -0.210986 362.475 222.453)" fill="#192043"/>
<rect width="2.74088" height="18.2725" rx="1.37044" transform="matrix(-0.977489 -0.210986 -0.210986 0.977489 271.202 53.8711)" fill="#192043"/>
<rect width="2.74088" height="18.2725" rx="1.37044" transform="matrix(-0.72744 0.686171 0.686171 0.72744 126.677 86.1833)" fill="#192043"/>
<rect width="2.74088" height="18.2725" rx="1.37044" transform="matrix(0.686171 0.72744 0.72744 -0.686171 122.142 282.36)" fill="#192043"/>
<rect width="2.74088" height="18.2725" rx="1.37044" transform="matrix(0.72744 -0.686171 -0.686171 -0.72744 326.178 284.154)" fill="#192043"/>
<rect width="2.74088" height="18.2725" rx="1.37044" transform="matrix(-0.686171 -0.72744 -0.72744 0.686171 332.904 90.1678)" fill="#192043"/>
<rect width="2.74088" height="18.2725" rx="1.37044" transform="matrix(-0.499417 0.866362 0.866362 0.499417 103.761 115.427)" fill="#192043"/>
<rect width="2.74088" height="18.2725" rx="1.37044" transform="matrix(0.866362 0.499417 0.499417 -0.866362 151.386 305.277)" fill="#192043"/>
<rect width="2.74088" height="18.2725" rx="1.37044" transform="matrix(0.499417 -0.866362 -0.866362 -0.499417 349.095 254.91)" fill="#192043"/>
<rect width="2.74088" height="18.2725" rx="1.37044" transform="matrix(-0.866362 -0.499417 -0.499417 0.866362 303.66 67.2516)" fill="#192043"/>
<rect width="2.74088" height="18.2725" rx="1.37044" transform="matrix(-0.829207 0.558942 0.558942 0.829207 154.583 64.2563)" fill="#192043"/>
<rect width="2.74088" height="18.2725" rx="1.37044" transform="matrix(0.558942 0.829207 0.829207 -0.558942 100.215 254.454)" fill="#192043"/>
<rect width="2.74088" height="18.2725" rx="1.37044" transform="matrix(0.829207 -0.558942 -0.558942 -0.829207 298.272 306.081)" fill="#192043"/>
<rect width="2.74088" height="18.2725" rx="1.37044" transform="matrix(-0.558942 -0.829207 -0.829207 0.558942 354.831 118.074)" fill="#192043"/>
<rect width="2.74088" height="18.2725" rx="1.37044" transform="matrix(-0.968906 0.247429 0.247429 0.968906 187.684 51.4655)" fill="#192043"/>
<rect width="2.74088" height="18.2725" rx="1.37044" transform="matrix(0.247429 0.968906 0.968906 -0.247429 87.4241 221.353)" fill="#192043"/>
<rect width="2.74088" height="18.2725" rx="1.37044" transform="matrix(0.968906 -0.247429 -0.247429 -0.968906 265.171 318.872)" fill="#192043"/>
<rect width="2.74088" height="18.2725" rx="1.37044" transform="matrix(-0.247429 -0.968906 -0.968906 0.247429 367.622 151.175)" fill="#192043"/>
<path d="M247.884 206.884L291.185 250.185L244.194 228.534L247.884 206.884Z" fill="#FBFDFF"/>
<path d="M203.221 162.221L159.92 118.92L206.911 140.571L203.221 162.221Z" fill="#FBFDFF"/>
<path d="M247.884 162.221L291.185 118.92L244.194 140.571L247.884 162.221Z" fill="#192043"/>
<path d="M203.221 206.884L159.92 250.185L206.911 228.534L203.221 206.884Z" fill="#192043"/>
<path d="M247.884 206.884L291.185 250.185L269.534 203.194L247.884 206.884Z" fill="#192043"/>
<path d="M203.221 162.221L159.92 118.92L181.571 165.911L203.221 162.221Z" fill="#192043"/>
<path d="M247.884 162.221L291.185 118.92L269.534 165.911L247.884 162.221Z" fill="#FBFDFF"/>
<path d="M203.221 206.884L159.92 250.185L181.571 203.194L203.221 206.884Z" fill="#FBFDFF"/>
<path d="M225.5 184.5H382L248.166 161.834L225.5 184.5Z" fill="#192043"/>
<path d="M225.5 184.5H69L202.834 207.166L225.5 184.5Z" fill="#192043"/>
<path d="M225.5 184.5V28L202.834 161.834L225.5 184.5Z" fill="#192043"/>
<path d="M225.5 184.5V341L202.834 207.166L225.5 184.5Z" fill="#FBFDFF"/>
<path d="M225.5 184.5H69L202.834 161.834L225.5 184.5Z" fill="#FBFDFF"/>
<path d="M225.5 184.5V28L248.166 161.834L225.5 184.5Z" fill="#FBFDFF"/>
<path d="M225.5 184.5V341L248.166 207.166L225.5 184.5Z" fill="#192043"/>
<path d="M225.5 184.5H382L248.166 207.166L225.5 184.5Z" fill="#FBFDFF"/>
<g filter="url(#filter0_d_186_1901)">
<rect x="184.667" y="329.333" width="82.6667" height="37.6667" rx="18.8333" fill="#3B4261"/>
</g>
<g filter="url(#filter1_d_186_1901)">
<rect x="184.667" width="82.6667" height="37.6667" rx="18.8333" fill="#3B4261"/>
</g>
<g filter="url(#filter2_d_186_1901)">
<rect x="365.333" y="164.667" width="82.6667" height="37.6667" rx="18.8333" fill="#3B4261"/>
</g>
<g filter="url(#filter3_d_186_1901)">
<rect x="4" y="164.667" width="82.6667" height="37.6667" rx="18.8333" fill="#3B4261"/>
</g>
<defs>
<filter id="filter0_d_186_1901" x="180.667" y="329.333" width="90.6667" height="45.6666" filterUnits="userSpaceOnUse" color-interpolation-filters="sRGB">
<feFlood flood-opacity="0" result="BackgroundImageFix"/>
<feColorMatrix in="SourceAlpha" type="matrix" values="0 0 0 0 0 0 0 0 0 0 0 0 0 0 0 0 0 0 127 0" result="hardAlpha"/>
<feOffset dy="4"/>
<feGaussianBlur stdDeviation="2"/>
<feComposite in2="hardAlpha" operator="out"/>
<feColorMatrix type="matrix" values="0 0 0 0 0 0 0 0 0 0 0 0 0 0 0 0 0 0 0.25 0"/>
<feBlend mode="normal" in2="BackgroundImageFix" result="effect1_dropShadow_186_1901"/>
<feBlend mode="normal" in="SourceGraphic" in2="effect1_dropShadow_186_1901" result="shape"/>
</filter>
<filter id="filter1_d_186_1901" x="180.667" y="0" width="90.6667" height="45.6667" filterUnits="userSpaceOnUse" color-interpolation-filters="sRGB">
<feFlood flood-opacity="0" result="BackgroundImageFix"/>
<feColorMatrix in="SourceAlpha" type="matrix" values="0 0 0 0 0 0 0 0 0 0 0 0 0 0 0 0 0 0 127 0" result="hardAlpha"/>
<feOffset dy="4"/>
<feGaussianBlur stdDeviation="2"/>
<feComposite in2="hardAlpha" operator="out"/>
<feColorMatrix type="matrix" values="0 0 0 0 0 0 0 0 0 0 0 0 0 0 0 0 0 0 0.25 0"/>
<feBlend mode="normal" in2="BackgroundImageFix" result="effect1_dropShadow_186_1901"/>
<feBlend mode="normal" in="SourceGraphic" in2="effect1_dropShadow_186_1901" result="shape"/>
</filter>
<filter id="filter2_d_186_1901" x="361.333" y="164.667" width="90.6667" height="45.6666" filterUnits="userSpaceOnUse" color-interpolation-filters="sRGB">
<feFlood flood-opacity="0" result="BackgroundImageFix"/>
<feColorMatrix in="SourceAlpha" type="matrix" values="0 0 0 0 0 0 0 0 0 0 0 0 0 0 0 0 0 0 127 0" result="hardAlpha"/>
<feOffset dy="4"/>
<feGaussianBlur stdDeviation="2"/>
<feComposite in2="hardAlpha" operator="out"/>
<feColorMatrix type="matrix" values="0 0 0 0 0 0 0 0 0 0 0 0 0 0 0 0 0 0 0.25 0"/>
<feBlend mode="normal" in2="BackgroundImageFix" result="effect1_dropShadow_186_1901"/>
<feBlend mode="normal" in="SourceGraphic" in2="effect1_dropShadow_186_1901" result="shape"/>
</filter>
<filter id="filter3_d_186_1901" x="0" y="164.667" width="90.6667" height="45.6666" filterUnits="userSpaceOnUse" color-interpolation-filters="sRGB">
<feFlood flood-opacity="0" result="BackgroundImageFix"/>
<feColorMatrix in="SourceAlpha" type="matrix" values="0 0 0 0 0 0 0 0 0 0 0 0 0 0 0 0 0 0 127 0" result="hardAlpha"/>
<feOffset dy="4"/>
<feGaussianBlur stdDeviation="2"/>
<feComposite in2="hardAlpha" operator="out"/>
<feColorMatrix type="matrix" values="0 0 0 0 0 0 0 0 0 0 0 0 0 0 0 0 0 0 0.25 0"/>
<feBlend mode="normal" in2="BackgroundImageFix" result="effect1_dropShadow_186_1901"/>
<feBlend mode="normal" in="SourceGraphic" in2="effect1_dropShadow_186_1901" result="shape"/>
</filter>
</defs>
</svg>
