<svg width="321" height="103" viewBox="0 0 321 103" fill="none" xmlns="http://www.w3.org/2000/svg">
<rect width="321" height="103" rx="26" fill="#192043"/>
<mask id="mask0_156_1537" style="mask-type:luminance" maskUnits="userSpaceOnUse" x="89" y="4" width="143" height="96">
<path d="M232 4H89V99.0175H232V4Z" fill="white"/>
</mask>
<g mask="url(#mask0_156_1537)">
<path d="M113.897 86.7125H105.108L105.002 26.4101H91.4255V20.5082H113.897V86.7125Z" fill="#EEF5FF"/>
<path d="M135.509 69.0434V20.5082H143.872V67.1738L135.509 69.0434ZM149.405 20.5082H157.428V67.8153C157.428 71.4353 156.305 74.2855 154.065 76.375C151.82 78.4645 148.309 79.5092 143.532 79.5092H121.614V20.5082H129.87V73.7173H143.106C145.415 73.7173 147.043 73.1857 147.979 72.1226C148.926 71.0596 149.405 69.6253 149.405 67.8153V20.5082Z" fill="#EEF5FF"/>
<path d="M165.684 20.5082H188.687C190.06 20.5082 191.241 20.9297 192.219 21.7729C193.198 22.616 193.688 23.6608 193.688 24.9071V79.5092H179.792L180.218 73.7173H185.218V26.4101H176.43L173.706 79.5092H165.024L167.535 31.5422L171.216 26.4101H165.684V20.5082Z" fill="#EEF5FF"/>
<path d="M210.405 79.5092H201.51V36.2161L210.405 35.0981V79.5092ZM223.109 20.5082C224.481 20.5082 225.583 20.9023 226.407 21.6812C227.242 22.4648 227.663 23.5416 227.663 24.9071V79.5092H218.768V26.4101H201.063V20.5082H223.109Z" fill="#EEF5FF"/>
</g>
</svg>
