<svg width="47" height="26" viewBox="0 0 47 26" fill="none" xmlns="http://www.w3.org/2000/svg">
<path d="M0.885892 2.69897H10.098V25.124H7.32453V4.93858H4.37156V23.3473C4.37156 24.5322 3.76649 25.124 2.55924 25.124H0V22.9191H1.56334V6.46637L2.59398 4.93858H0.885892V2.69897Z" fill="#EEF5FF"/>
<path d="M15.3971 14.2847L12.4789 14.8171V2.69897H15.3971V14.2847Z" fill="#EEF5FF"/>
<path d="M17.2771 2.69897H26.0955V21.5707C26.0955 22.8019 25.8407 23.7032 25.3312 24.2733C24.8217 24.8404 24.0935 25.124 23.1483 25.124H18.3077L17.2771 2.69897ZM23.432 4.93858H20.1606L20.7975 22.9191H22.7198C23.0282 22.9191 23.2236 22.8308 23.3046 22.6529C23.3886 22.4764 23.432 22.2579 23.432 21.9989V4.93858Z" fill="#EEF5FF"/>
<path d="M27.8746 2.69897H34.846V23.3473C34.846 23.9376 34.6607 24.3818 34.2901 24.6784C33.9224 24.9764 33.4911 25.124 32.9931 25.124H27.8746V22.9191H31.9277V4.93858H27.8746V2.69897Z" fill="#EEF5FF"/>
<path d="M37.2954 2.69897H46.5076V25.124H43.7341V4.93858H40.7811V23.3473C40.7811 24.5322 40.176 25.124 38.9688 25.124H36.4095V22.9191H37.9729V6.46637L39.0035 4.93858H37.2954V2.69897Z" fill="#EEF5FF"/>
</svg>
