<svg width="448" height="832" viewBox="0 0 448 832" fill="none" xmlns="http://www.w3.org/2000/svg">
<rect width="448" height="832" fill="#EEF5FF"/>
<mask id="mask0_94_1508" style="mask-type:alpha" maskUnits="userSpaceOnUse" x="0" y="0" width="448" height="832">
<rect width="448" height="832" fill="#EEF5FF"/>
</mask>
<g mask="url(#mask0_94_1508)">
<g filter="url(#filter0_f_94_1508)">
<path d="M150.32 72.7184C145.954 72.5236 139.922 78.4993 139.922 78.4993C139.922 78.4993 139.06 70.0692 135.58 67.4234C120.203 55.7313 115.283 61.2511 115.283 61.2511C115.283 61.2511 117.222 58.5789 112.242 50.6423C106.894 42.119 91.8369 36.5946 91.8369 36.5946C91.8369 36.5946 109.678 25.081 121.682 24.3655C124.631 24.1897 128.974 25.8657 128.974 25.8657C128.974 25.8657 130.565 34.9107 134.438 37.9046C137.12 39.9775 141.351 43.1869 141.351 43.1869L146.035 34.2341C146.035 34.2341 146.955 39.1709 149.201 40.4093C152.06 41.9863 153.794 42.6093 157.004 43.2125C159.524 43.6862 163.375 40.4635 163.375 40.4635L162.159 50.6622C162.159 50.6622 167.031 50.7233 169.985 50.675C174.898 50.5948 181.862 44.8656 181.862 44.8656C181.862 44.8656 186.924 45.6951 189.053 48.0089C197.501 57.1913 203.248 76.6189 203.248 76.6189C203.248 76.6189 188.906 73.3691 179.69 75.433C170.109 77.5788 169.471 80.7181 169.471 80.7181C169.471 80.7181 168.144 73.5139 150.32 72.7184Z" fill="black" fill-opacity="0.02"/>
</g>
<g filter="url(#filter1_f_94_1508)">
<path d="M310.28 21.6971C308.352 27.1765 313.782 37.3579 313.782 37.3579C313.782 37.3579 302.525 34.9311 297.76 38.2575C276.703 52.9568 281.97 61.531 281.97 61.531C281.97 61.531 279.25 57.9442 267.052 60.9694C253.952 64.2183 241.013 81.0872 241.013 81.0872C241.013 81.0872 232.936 53.5485 236.616 37.9592C237.52 34.1285 241.359 29.2978 241.359 29.2978C241.359 29.2978 253.693 31.0527 259.06 27.3712C262.776 24.8222 268.56 20.7747 268.56 20.7747L258.754 11.0645C258.754 11.0645 265.506 11.9565 267.973 9.61414C271.114 6.63102 272.587 4.68274 274.601 0.846865C276.182 -2.16515 273.483 -8.41829 273.483 -8.41829L286.235 -2.60472C286.235 -2.60472 288.184 -8.78566 289.256 -12.5686C291.037 -18.8594 286.283 -30.1248 286.283 -30.1248C286.283 -30.1248 289.302 -36.2267 293.118 -37.9708C308.262 -44.8926 335.648 -44.0899 335.648 -44.0899C335.648 -44.0899 325.932 -27.1809 325.07 -14.5794C324.175 -1.47842 327.999 0.647221 327.999 0.647221C327.999 0.647221 318.151 -0.673856 310.28 21.6971Z" fill="black" fill-opacity="0.02"/>
</g>
<g filter="url(#filter2_f_94_1508)">
<path d="M28.998 26.3763C27.2445 29.0693 28.8996 35.4324 28.8996 35.4324C28.8996 35.4324 23.0741 32.4134 20.0502 33.5062C6.68751 38.3354 8.45913 43.7985 8.45913 43.7985C8.45913 43.7985 7.43654 41.4353 0.399191 41.2432C-7.15841 41.0369 -16.3743 48.2716 -16.3743 48.2716C-16.3743 48.2716 -17.2465 32.0578 -13.2423 24.1237C-12.2583 22.174 -9.54631 20.1224 -9.54631 20.1224C-9.54631 20.1224 -3.04758 22.938 0.350034 21.7425C2.70239 20.9148 6.37402 19.5829 6.37402 19.5829L2.2732 12.8166C2.2732 12.8166 5.83953 14.3205 7.48454 13.417C9.57951 12.2663 10.6322 11.4275 12.2216 9.64231C13.4696 8.24057 12.8 4.42848 12.8 4.42848L19.0062 9.51716C19.0062 9.51716 20.8611 6.44531 21.93 4.54686C23.7074 1.38986 22.5604 -5.46139 22.5604 -5.46139C22.5604 -5.46139 24.988 -8.32901 27.2917 -8.70333C36.4344 -10.1889 51.2604 -5.62206 51.2604 -5.62206C51.2604 -5.62206 43.7963 2.12045 41.7111 8.85253C39.5433 15.8515 41.3554 17.5856 41.3554 17.5856C41.3554 17.5856 36.1568 15.3813 28.998 26.3763Z" fill="black" fill-opacity="0.02"/>
</g>
<g filter="url(#filter3_f_94_1508)">
<path d="M63.482 196.019C60.3568 199.399 60.5221 206.579 60.5221 206.579C60.5221 206.579 53.881 203.875 49.602 205.57C30.693 213.057 31.2915 219.172 31.2915 219.172C31.2915 219.172 30.699 216.562 21.596 217.32C11.8202 218.134 -2.44165 227.844 -2.44165 227.844C-2.44165 227.844 1.49273 209.085 9.18745 199.287C11.0783 196.88 15.251 194.112 15.251 194.112C15.251 194.112 22.8322 196.485 27.6299 194.619C30.9516 193.327 36.1487 191.263 36.1487 191.263L32.9251 183.956C32.9251 183.956 37.0983 185.21 39.5228 183.928C42.6104 182.296 44.2433 181.172 46.871 178.872C48.9343 177.066 49.2545 172.72 49.2545 172.72L55.744 177.78C55.744 177.78 59.1198 173.944 61.1051 171.584C64.4066 167.66 65.0556 159.842 65.0556 159.842C65.0556 159.842 69.1131 156.164 72.2297 155.406C84.5985 152.401 102.475 155.652 102.475 155.652C102.475 155.652 90.3349 165.709 85.5148 173.839C80.5036 182.292 82.3208 184.059 82.3208 184.059C82.3208 184.059 76.2412 182.217 63.482 196.019Z" fill="black" fill-opacity="0.02"/>
</g>
<g filter="url(#filter4_f_94_1508)">
<path d="M333.569 294.616C328.967 294.763 323.97 299.92 323.97 299.92C323.97 299.92 321.234 293.292 317.023 291.434C298.417 283.222 294.482 287.941 294.482 287.941C294.482 287.941 295.925 285.687 288.995 279.736C281.554 273.344 264.627 270.002 264.627 270.002C264.627 270.002 280.75 259.637 293.129 258.24C296.171 257.896 301.071 258.926 301.071 258.926C301.071 258.926 304.703 265.991 309.4 268.098C312.652 269.557 317.769 271.81 317.769 271.81L320.711 264.385C320.711 264.385 322.747 268.237 325.362 269.064C328.692 270.118 330.638 270.492 334.121 270.749C336.856 270.95 340.176 268.128 340.176 268.128L341.127 276.302C341.127 276.302 346.229 276.014 349.303 275.771C354.416 275.368 360.44 270.342 360.44 270.342C360.44 270.342 365.908 270.651 368.635 272.339C379.457 279.039 389.69 294.052 389.69 294.052C389.69 294.052 374.006 292.466 364.831 294.74C355.294 297.104 355.311 299.638 355.311 299.638C355.311 299.638 352.355 294.015 333.569 294.616Z" fill="black" fill-opacity="0.02"/>
</g>
<g filter="url(#filter5_f_94_1508)">
<path d="M268.762 385.983C264.679 383.855 257.796 385.9 257.796 385.9C257.796 385.9 258.66 378.782 255.901 375.098C243.71 358.82 237.968 361.003 237.968 361.003C237.968 361.003 240.33 359.746 237.208 351.162C233.855 341.943 220.74 330.732 220.74 330.732C220.74 330.732 239.874 329.601 251.349 334.452C254.169 335.645 257.935 338.944 257.935 338.944C257.935 338.944 257.637 346.882 260.697 351.021C262.816 353.887 266.172 358.36 266.172 358.36L272.376 353.33C272.376 353.33 272.262 357.686 274.136 359.689C276.521 362.24 278.035 363.52 280.944 365.452C283.229 366.968 287.507 366.136 287.507 366.136L284.328 373.726C284.328 373.726 288.916 375.976 291.715 377.272C296.368 379.427 304.083 378 304.083 378C304.083 378 308.697 380.949 310.246 383.757C316.394 394.903 317.953 413.005 317.953 413.005C317.953 413.005 305.06 403.933 295.95 401.417C286.478 398.802 285.25 401.019 285.25 401.019C285.25 401.019 285.431 394.669 268.762 385.983Z" fill="black" fill-opacity="0.02"/>
</g>
<g filter="url(#filter6_f_94_1508)">
<path d="M170.843 272.047C170.876 278.234 179.845 286.406 179.845 286.406C179.845 286.406 167.86 288.135 164.327 293.218C148.715 315.68 156.953 322.306 156.953 322.306C156.953 322.306 152.997 319.725 142.011 327.25C130.212 335.332 123.391 356.966 123.391 356.966C123.391 356.966 105.667 332.425 103.789 315.486C103.328 311.324 105.413 305.079 105.413 305.079C105.413 305.079 118.225 302.281 122.227 296.621C124.998 292.702 129.282 286.522 129.282 286.522L116.155 280.437C116.155 280.437 123.144 278.836 124.754 275.585C126.804 271.444 127.57 268.953 128.204 264.377C128.701 260.783 123.821 255.529 123.821 255.529L138.482 256.633C138.482 256.633 138.222 249.736 137.942 245.56C137.477 238.616 128.794 229.111 128.794 229.111C128.794 229.111 129.619 221.899 132.773 218.747C145.293 206.24 172.645 196.935 172.645 196.935C172.645 196.935 169.023 217.42 172.629 230.332C176.378 243.756 180.91 244.469 180.91 244.469C180.91 244.469 170.709 246.783 170.843 272.047Z" fill="black" fill-opacity="0.02"/>
</g>
<g filter="url(#filter7_f_94_1508)">
<path d="M22.9637 390.999C20.2751 397.013 25.043 408.345 25.043 408.345C25.043 408.345 13.1137 405.472 7.58767 409.061C-16.8321 424.921 -12.0661 434.475 -12.0661 434.475C-12.0661 434.475 -14.6192 430.469 -28.1647 433.598C-42.7116 436.957 -58.5756 455.352 -58.5756 455.352C-58.5756 455.352 -64.3088 424.817 -58.6158 407.675C-57.2168 403.462 -52.5291 398.197 -52.5291 398.197C-52.5291 398.197 -39.3596 400.347 -33.1425 396.376C-28.838 393.627 -22.1295 389.26 -22.1295 389.26L-31.6892 378.373C-31.6892 378.373 -24.4725 379.474 -21.5437 376.931C-17.8138 373.693 -16.0048 371.568 -13.4034 367.369C-11.3607 364.072 -13.5997 357.124 -13.5997 357.124L-0.422142 363.761C-0.422142 363.761 2.36629 356.972 3.9409 352.815C6.55938 345.903 2.64377 333.387 2.64377 333.387C2.64377 333.387 6.58164 326.704 10.9063 324.845C28.0697 317.467 57.6492 318.826 57.6492 318.826C57.6492 318.826 45.2721 337.321 42.9587 351.215C40.5536 365.66 44.4635 368.072 44.4635 368.072C44.4635 368.072 33.9407 366.443 22.9637 390.999Z" fill="black" fill-opacity="0.02"/>
</g>
<g filter="url(#filter8_f_94_1508)">
<path d="M284.385 567.447C280.461 567.288 275.805 571.526 275.805 571.526C275.805 571.526 274.004 565.503 270.572 563.598C255.407 555.178 251.688 559.096 251.688 559.096C251.688 559.096 253.093 557.197 247.674 551.507C241.854 545.397 227.73 541.382 227.73 541.382C227.73 541.382 242.256 533.245 252.89 532.791C255.503 532.679 259.587 533.896 259.587 533.896C259.587 533.896 262.115 540.361 265.94 542.517C268.589 544.009 272.761 546.321 272.761 546.321L275.85 539.951C275.85 539.951 277.275 543.48 279.432 544.374C282.179 545.514 283.804 545.967 286.745 546.413C289.054 546.763 292.099 544.48 292.099 544.48L292.261 551.756C292.261 551.756 296.62 551.822 299.253 551.802C303.63 551.767 309.149 547.71 309.149 547.71C309.149 547.71 313.773 548.326 315.957 549.988C324.626 556.583 332.135 570.481 332.135 570.481C332.135 570.481 318.928 568.093 310.95 569.524C302.655 571.011 302.469 573.249 302.469 573.249C302.469 573.249 300.402 568.099 284.385 567.447Z" fill="black" fill-opacity="0.03"/>
</g>
<g filter="url(#filter9_f_94_1508)">
<path d="M28.7847 583.077C25.6164 585.397 24.6143 591.613 24.6143 591.613C24.6143 591.613 19.4533 588.023 15.5817 588.671C-1.52672 591.532 -1.99503 596.913 -1.99503 596.913C-1.99503 596.913 -2.07898 594.553 -9.86259 593.478C-18.2216 592.323 -31.7713 597.982 -31.7713 597.982C-31.7713 597.982 -25.477 582.567 -17.4418 575.587C-15.4673 573.872 -11.5147 572.28 -11.5147 572.28C-11.5147 572.28 -5.50966 575.763 -1.17417 575.066C1.82753 574.583 6.53063 573.792 6.53063 573.792L4.97853 566.885C4.97853 566.885 8.29238 568.758 10.5371 568.114C13.3958 567.294 14.9491 566.636 17.5269 565.153C19.551 563.988 20.5114 560.305 20.5114 560.305L25.17 565.896C25.17 565.896 28.6217 563.232 30.6682 561.576C34.0713 558.822 35.8605 552.21 35.8605 552.21C35.8605 552.21 39.861 549.812 42.605 549.751C53.4952 549.51 68.0272 555.703 68.0272 555.703C68.0272 555.703 56.2087 562.063 50.8585 568.152C45.2962 574.483 46.5451 576.35 46.5451 576.35C46.5451 576.35 41.7199 573.609 28.7847 583.077Z" fill="black" fill-opacity="0.03"/>
</g>
<g filter="url(#filter10_f_94_1508)">
<path d="M194.83 492.021C189.691 496.103 188.742 508.794 188.742 508.794C188.742 508.794 179.46 500.124 172.909 500.565C143.961 502.515 143.824 513.596 143.824 513.596C143.824 513.596 143.388 508.668 129.925 504.613C115.466 500.259 92.9584 508.857 92.9584 508.857C92.9584 508.857 101.835 478.276 114.734 465.64C117.904 462.535 124.477 460.149 124.477 460.149C124.477 460.149 135.192 468.794 142.531 468.359C147.612 468.057 155.569 467.512 155.569 467.512L152.058 452.786C152.058 452.786 157.965 457.454 161.73 456.64C166.524 455.603 169.103 454.598 173.335 452.117C176.658 450.168 177.848 442.734 177.848 442.734L186.517 455.449C186.517 455.449 192.1 450.717 195.4 447.752C200.889 442.821 203.136 429.489 203.136 429.489C203.136 429.489 209.691 425.438 214.383 425.953C233.005 427.997 258.659 444.272 258.659 444.272C258.659 444.272 239.203 454.734 230.792 466.145C222.048 478.009 224.417 482.183 224.417 482.183C224.417 482.183 215.815 475.356 194.83 492.021Z" fill="black" fill-opacity="0.03"/>
</g>
<g filter="url(#filter11_f_94_1508)">
<path d="M425.673 587.618C422.816 588.117 419.57 593.244 419.57 593.244C419.57 593.244 418.064 587.379 415.507 586.006C404.209 579.941 401.634 584.582 401.634 584.582C401.634 584.582 402.593 582.4 398.468 577.486C394.038 572.209 383.64 570.48 383.64 570.48C383.64 570.48 393.933 559.693 401.648 557.432C403.543 556.877 406.552 557.434 406.552 557.434C406.552 557.434 408.6 563.631 411.451 565.193C413.425 566.275 416.533 567.938 416.533 567.938L418.57 560.892C418.57 560.892 419.722 564.266 421.319 564.818C423.353 565.522 424.549 565.711 426.701 565.672C428.391 565.641 430.53 562.788 430.53 562.788L430.885 570.214C430.885 570.214 434.056 569.546 435.969 569.081C439.15 568.307 443.029 563.218 443.029 563.218C443.029 563.218 446.409 563.069 448.052 564.403C454.568 569.696 460.481 582.665 460.481 582.665C460.481 582.665 450.803 582.448 445.051 585.26C439.07 588.184 439.008 590.508 439.008 590.508C439.008 590.508 437.337 585.582 425.673 587.618Z" fill="black" fill-opacity="0.03"/>
</g>
<g filter="url(#filter12_f_94_1508)">
<path d="M402.349 644.567C400.82 645.914 400.756 650.177 400.756 650.177C400.756 650.177 397.702 647.214 395.667 647.329C386.672 647.838 386.831 651.564 386.831 651.564C386.831 651.564 386.605 649.904 382.332 648.472C377.742 646.935 370.877 649.712 370.877 649.712C370.877 649.712 373.089 639.473 376.883 635.29C377.815 634.262 379.822 633.492 379.822 633.492C379.822 633.492 383.322 636.454 385.604 636.345C387.183 636.269 389.656 636.126 389.656 636.126L388.292 631.157C388.292 631.157 390.22 632.756 391.379 632.501C392.856 632.177 393.642 631.852 394.917 631.039C395.918 630.401 396.154 627.907 396.154 627.907L399.09 632.227C399.09 632.227 400.745 630.664 401.721 629.683C403.343 628.053 403.801 623.581 403.801 623.581C403.801 623.581 405.773 622.252 407.246 622.449C413.092 623.231 421.391 628.834 421.391 628.834C421.391 628.834 415.512 632.253 413.096 636.048C410.585 639.993 411.4 641.409 411.4 641.409C411.4 641.409 408.592 639.069 402.349 644.567Z" fill="black" fill-opacity="0.03"/>
</g>
<g filter="url(#filter13_f_94_1508)">
<path d="M426.902 744.165C424.07 744.509 420.969 748.718 420.969 748.718C420.969 748.718 419.318 743.768 416.736 742.553C405.327 737.183 402.883 741.002 402.883 741.002C402.883 741.002 403.782 739.2 399.547 734.979C394.999 730.447 384.599 728.731 384.599 728.731C384.599 728.731 394.571 719.965 402.196 718.271C404.07 717.855 407.08 718.399 407.08 718.399C407.08 718.399 409.28 723.64 412.16 725.022C414.154 725.979 417.292 727.452 417.292 727.452L419.139 721.604C419.139 721.604 420.373 724.459 421.978 724.963C424.021 725.604 425.217 725.794 427.359 725.816C429.041 725.834 431.098 723.501 431.098 723.501L431.643 729.727C431.643 729.727 434.784 729.25 436.677 728.91C439.825 728.344 443.557 724.183 443.557 724.183C443.557 724.183 446.92 724.146 448.59 725.305C455.217 729.904 461.44 740.915 461.44 740.915C461.44 740.915 451.796 740.485 446.139 742.691C440.259 744.984 440.257 746.929 440.257 746.929C440.257 746.929 438.466 742.761 426.902 744.165Z" fill="black" fill-opacity="0.06"/>
</g>
<g filter="url(#filter14_f_94_1508)">
<path d="M324.679 692.79C321.723 690.5 314.757 691.637 314.757 691.637C314.757 691.637 318.044 685.406 316.836 681.866C311.499 666.222 305.52 667.594 305.52 667.594C305.52 667.594 308.105 666.711 308.291 658.787C308.491 650.277 300.533 639.039 300.533 639.039C300.533 639.039 318.294 639.92 327.001 645.355C329.14 646.69 331.397 649.989 331.397 649.989C331.397 649.989 328.335 657.002 329.657 660.976C330.572 663.728 332.044 668.027 332.044 668.027L339.443 664.175C339.443 664.175 337.808 668.029 338.803 669.99C340.071 672.488 340.994 673.774 342.955 675.774C344.495 677.344 348.67 677.027 348.67 677.027L343.116 683.449C343.116 683.449 346.488 685.897 348.572 687.322C352.037 689.692 359.539 689.186 359.539 689.186C359.539 689.186 362.689 692.257 363.107 694.901C364.767 705.396 359.815 721.61 359.815 721.61C359.815 721.61 351.306 712.291 343.923 709.162C336.247 705.909 334.353 707.755 334.353 707.755C334.353 707.755 336.75 702.139 324.679 692.79Z" fill="black" fill-opacity="0.05"/>
</g>
<g filter="url(#filter15_f_94_1508)">
<path d="M128.193 644.928C125.971 648.507 128.347 656.873 128.347 656.873C128.347 656.873 120.589 652.982 116.645 654.471C99.2163 661.048 101.718 668.225 101.718 668.225C101.718 668.225 100.299 665.125 91.0345 664.981C81.0857 664.827 69.1876 674.512 69.1876 674.512C69.1876 674.512 67.5338 653.142 72.5538 642.616C73.7873 640.029 77.291 637.281 77.291 637.281C77.291 637.281 85.9284 640.893 90.3608 639.263C93.4296 638.135 98.2182 636.321 98.2182 636.321L92.612 627.462C92.612 627.462 97.3507 629.389 99.4866 628.172C102.207 626.622 103.565 625.499 105.601 623.12C107.199 621.252 106.199 616.235 106.199 616.235L114.522 622.849C114.522 622.849 116.866 618.769 118.213 616.249C120.453 612.057 118.73 603.039 118.73 603.039C118.73 603.039 121.834 599.22 124.853 598.69C136.834 596.588 156.481 602.38 156.481 602.38C156.481 602.38 146.904 612.708 144.371 621.619C141.738 630.883 144.176 633.142 144.176 633.142C144.176 633.142 137.268 630.316 128.193 644.928Z" fill="black" fill-opacity="0.04"/>
</g>
<g filter="url(#filter16_f_94_1508)">
<path d="M21.4569 753.582C18.0675 755.479 16.3143 762.756 16.3143 762.756C16.3143 762.756 11.7084 756.874 7.83831 756.53C-9.26379 755.007 -10.3908 761.424 -10.3908 761.424C-10.3908 761.424 -10.1797 758.525 -17.6651 754.938C-25.704 751.085 -39.6701 754.011 -39.6701 754.011C-39.6701 754.011 -31.5939 737.081 -22.8614 730.931C-20.7156 729.42 -16.6487 728.638 -16.6487 728.638C-16.6487 728.638 -11.2034 734.637 -6.87303 735.057C-3.87487 735.348 0.827025 735.761 0.827025 735.761L0.165855 726.895C0.165855 726.895 3.17702 730.145 5.45425 730.018C8.35437 729.856 9.95656 729.509 12.6641 728.458C14.7901 727.632 16.1877 723.427 16.1877 723.427L20.0533 731.6C20.0533 731.6 23.7629 729.366 25.9718 727.948C29.6452 725.59 32.218 718.061 32.218 718.061C32.218 718.061 36.4318 716.311 39.1253 717.04C49.8152 719.933 63.2705 731.728 63.2705 731.728C63.2705 731.728 50.9118 736.015 44.9182 741.865C38.687 747.947 39.6776 750.586 39.6776 750.586C39.6776 750.586 35.295 745.836 21.4569 753.582Z" fill="black" fill-opacity="0.06"/>
</g>
<g filter="url(#filter17_f_94_1508)">
<path d="M347.083 817.379C343.323 820.978 343.532 831.262 343.532 831.262C343.532 831.262 335.527 824.835 330.374 825.585C307.604 828.899 308.333 837.837 308.333 837.837C308.333 837.837 307.616 833.892 296.65 831.435C284.874 828.797 267.705 837.08 267.705 837.08C267.705 837.08 272.419 811.903 281.677 800.944C283.951 798.251 288.975 795.932 288.975 795.932C288.975 795.932 298.111 802.254 303.889 801.461C307.889 800.912 314.147 799.993 314.147 799.993L310.254 788.338C310.254 788.338 315.283 791.744 318.202 790.861C321.92 789.737 323.886 788.772 327.048 786.517C329.532 784.747 329.912 778.685 329.912 778.685L337.737 788.409C337.737 788.409 341.798 784.26 344.187 781.671C348.159 777.367 348.931 766.489 348.931 766.489C348.931 766.489 353.814 762.829 357.568 762.962C372.465 763.488 394.006 775.058 394.006 775.058C394.006 775.058 379.394 784.66 373.598 794.362C367.572 804.449 369.763 807.67 369.763 807.67C369.763 807.67 362.437 802.687 347.083 817.379Z" fill="black" fill-opacity="0.09"/>
</g>
<g filter="url(#filter18_f_94_1508)">
<path d="M153.171 812.83C148.634 813.394 143.391 820.751 143.391 820.751C143.391 820.751 141.119 812.026 137.095 809.854C119.312 800.255 115.141 806.935 115.141 806.935C115.141 806.935 116.703 803.779 110.264 796.301C103.348 788.269 86.9073 785.108 86.9073 785.108C86.9073 785.108 103.426 769.837 115.694 766.966C118.708 766.26 123.463 767.259 123.463 767.259C123.463 767.259 126.588 776.503 131.075 778.972C134.182 780.682 139.074 783.315 139.074 783.315L142.439 773.061C142.439 773.061 144.198 778.097 146.717 779.005C149.926 780.161 151.818 780.511 155.228 780.58C157.906 780.635 161.351 776.562 161.351 776.562L161.768 787.516C161.768 787.516 166.805 786.72 169.845 786.148C174.901 785.197 181.146 777.936 181.146 777.936C181.146 777.936 186.505 777.916 189.081 779.977C199.303 788.156 208.418 807.6 208.418 807.6C208.418 807.6 193.088 806.708 183.919 810.507C174.386 814.456 174.242 817.875 174.242 817.875C174.242 817.875 171.691 810.523 153.171 812.83Z" fill="black" fill-opacity="0.09"/>
</g>
<g filter="url(#filter19_f_94_1508)">
<path d="M234.007 743.717C231.224 743.154 226.685 746.451 226.685 746.451C226.685 746.451 227.07 740.865 225.129 738.792C216.552 729.63 212.778 732.74 212.778 732.74C212.778 732.74 214.321 731.19 212.005 725.515C209.518 719.421 200.462 714.314 200.462 714.314C200.462 714.314 213.203 708.583 220.993 709.314C222.907 709.493 225.51 711.02 225.51 711.02C225.51 711.02 225.525 717.08 227.68 719.42C229.172 721.04 231.532 723.556 231.532 723.556L235.538 718.182C235.538 718.182 235.579 721.495 236.884 722.527C238.545 723.841 239.589 724.42 241.584 725.134C243.15 725.695 245.982 723.976 245.982 723.976L244.066 730.509C244.066 730.509 247.189 731.035 249.092 731.298C252.256 731.736 257.367 728.693 257.367 728.693C257.367 728.693 260.526 729.739 261.636 731.461C266.041 738.295 267.57 751.543 267.57 751.543C267.57 751.543 258.72 747.992 252.571 748.419C246.178 748.862 245.418 750.847 245.418 750.847C245.418 750.847 245.367 746.014 234.007 743.717Z" fill="black" fill-opacity="0.06"/>
</g>
<g filter="url(#filter20_f_94_1508)">
<path d="M477.694 372.127C472.934 376.585 472.705 387.691 472.705 387.691C472.705 387.691 463.234 381.922 456.907 383.502C428.948 390.482 429.418 400.053 429.418 400.053C429.418 400.053 428.728 395.887 415.454 394.86C401.199 393.756 379.847 405.284 379.847 405.284C379.847 405.284 386.787 377.314 398.605 364.067C401.509 360.812 407.752 357.552 407.752 357.552C407.752 357.552 418.61 363.038 425.702 361.319C430.612 360.129 438.297 358.202 438.297 358.202L434.091 346.16C434.091 346.16 440.071 349.099 443.677 347.709C448.269 345.937 450.715 344.599 454.682 341.687C457.798 339.4 458.546 332.778 458.546 332.778L467.644 342.144C467.644 342.144 472.798 337.045 475.836 333.886C480.889 328.633 482.342 316.738 482.342 316.738C482.342 316.738 488.477 312.047 493.054 311.631C511.218 309.983 536.976 319.306 536.976 319.306C536.976 319.306 518.683 331.881 511.15 343.251C503.318 355.073 505.843 358.235 505.843 358.235C505.843 358.235 497.131 353.929 477.694 372.127Z" fill="black" fill-opacity="0.02"/>
</g>
<g filter="url(#filter21_f_94_1508)">
<path d="M427.854 209.9C423.494 209.988 418.363 215.505 418.363 215.505C418.363 215.505 416.303 208.271 412.472 206.189C395.541 196.988 391.449 202.046 391.449 202.046C391.449 202.046 392.991 199.623 386.915 193.057C380.389 186.006 364.659 182.115 364.659 182.115C364.659 182.115 380.717 171.12 392.526 169.798C395.428 169.473 399.977 170.666 399.977 170.666C399.977 170.666 402.848 178.389 407.119 180.749C410.076 182.383 414.734 184.908 414.734 184.908L418.103 176.897C418.103 176.897 419.721 181.109 422.126 182.047C425.189 183.242 426.999 183.679 430.27 184.012C432.838 184.274 436.2 181.263 436.2 181.263L436.45 190.147C436.45 190.147 441.294 189.914 444.218 189.699C449.081 189.342 455.173 183.983 455.173 183.983C455.173 183.983 460.315 184.403 462.758 186.277C472.453 193.716 480.932 210.167 480.932 210.167C480.932 210.167 466.237 208.2 457.387 210.524C448.187 212.94 448.002 215.69 448.002 215.69C448.002 215.69 445.655 209.542 427.854 209.9Z" fill="black" fill-opacity="0.02"/>
</g>
<g filter="url(#filter22_f_94_1508)">
<path d="M375.331 130.122C371.391 128.254 364.336 130.9 364.336 130.9C364.336 130.9 365.723 123.508 363.224 119.934C352.183 104.141 346.262 106.84 346.262 106.84C346.262 106.84 348.724 105.361 346.218 96.7727C343.528 87.5498 331.189 77.0452 331.189 77.0452C331.189 77.0452 350.467 74.3761 361.624 78.4655C364.366 79.4703 367.903 82.5692 367.903 82.5692C367.903 82.5692 367.025 90.7615 369.793 94.7801C371.709 97.5624 374.749 101.901 374.749 101.901L381.34 96.2371C381.34 96.2371 380.908 100.729 382.641 102.642C384.849 105.079 386.273 106.278 389.051 108.036C391.233 109.417 395.584 108.224 395.584 108.224L391.842 116.285C391.842 116.285 396.28 118.239 398.993 119.352C403.504 121.204 411.347 119.128 411.347 119.128C411.347 119.128 415.761 121.8 417.11 124.568C422.464 135.553 422.706 154.059 422.706 154.059C422.706 154.059 410.435 145.737 401.479 143.866C392.168 141.92 390.774 144.298 390.774 144.298C390.774 144.298 391.419 137.75 375.331 130.122Z" fill="black" fill-opacity="0.02"/>
</g>
</g>
<defs>
<filter id="filter0_f_94_1508" x="86.3369" y="18.8526" width="122.411" height="67.3656" filterUnits="userSpaceOnUse" color-interpolation-filters="sRGB">
<feFlood flood-opacity="0" result="BackgroundImageFix"/>
<feBlend mode="normal" in="SourceGraphic" in2="BackgroundImageFix" result="shape"/>
<feGaussianBlur stdDeviation="2.75" result="effect1_foregroundBlur_94_1508"/>
</filter>
<filter id="filter1_f_94_1508" x="230.155" y="-49.6183" width="110.993" height="136.206" filterUnits="userSpaceOnUse" color-interpolation-filters="sRGB">
<feFlood flood-opacity="0" result="BackgroundImageFix"/>
<feBlend mode="normal" in="SourceGraphic" in2="BackgroundImageFix" result="shape"/>
<feGaussianBlur stdDeviation="2.75" result="effect1_foregroundBlur_94_1508"/>
</filter>
<filter id="filter2_f_94_1508" x="-21.9546" y="-14.5005" width="78.7151" height="68.2722" filterUnits="userSpaceOnUse" color-interpolation-filters="sRGB">
<feFlood flood-opacity="0" result="BackgroundImageFix"/>
<feBlend mode="normal" in="SourceGraphic" in2="BackgroundImageFix" result="shape"/>
<feGaussianBlur stdDeviation="2.75" result="effect1_foregroundBlur_94_1508"/>
</filter>
<filter id="filter3_f_94_1508" x="-7.94165" y="148.632" width="115.916" height="84.7129" filterUnits="userSpaceOnUse" color-interpolation-filters="sRGB">
<feFlood flood-opacity="0" result="BackgroundImageFix"/>
<feBlend mode="normal" in="SourceGraphic" in2="BackgroundImageFix" result="shape"/>
<feGaussianBlur stdDeviation="2.75" result="effect1_foregroundBlur_94_1508"/>
</filter>
<filter id="filter4_f_94_1508" x="259.127" y="252.669" width="136.063" height="52.7505" filterUnits="userSpaceOnUse" color-interpolation-filters="sRGB">
<feFlood flood-opacity="0" result="BackgroundImageFix"/>
<feBlend mode="normal" in="SourceGraphic" in2="BackgroundImageFix" result="shape"/>
<feGaussianBlur stdDeviation="2.75" result="effect1_foregroundBlur_94_1508"/>
</filter>
<filter id="filter5_f_94_1508" x="215.24" y="325.117" width="108.213" height="93.3874" filterUnits="userSpaceOnUse" color-interpolation-filters="sRGB">
<feFlood flood-opacity="0" result="BackgroundImageFix"/>
<feBlend mode="normal" in="SourceGraphic" in2="BackgroundImageFix" result="shape"/>
<feGaussianBlur stdDeviation="2.75" result="effect1_foregroundBlur_94_1508"/>
</filter>
<filter id="filter6_f_94_1508" x="98.2224" y="191.435" width="88.187" height="171.031" filterUnits="userSpaceOnUse" color-interpolation-filters="sRGB">
<feFlood flood-opacity="0" result="BackgroundImageFix"/>
<feBlend mode="normal" in="SourceGraphic" in2="BackgroundImageFix" result="shape"/>
<feGaussianBlur stdDeviation="2.75" result="effect1_foregroundBlur_94_1508"/>
</filter>
<filter id="filter7_f_94_1508" x="-66.6357" y="313.228" width="129.785" height="147.624" filterUnits="userSpaceOnUse" color-interpolation-filters="sRGB">
<feFlood flood-opacity="0" result="BackgroundImageFix"/>
<feBlend mode="normal" in="SourceGraphic" in2="BackgroundImageFix" result="shape"/>
<feGaussianBlur stdDeviation="2.75" result="effect1_foregroundBlur_94_1508"/>
</filter>
<filter id="filter8_f_94_1508" x="222.23" y="527.283" width="115.406" height="51.4656" filterUnits="userSpaceOnUse" color-interpolation-filters="sRGB">
<feFlood flood-opacity="0" result="BackgroundImageFix"/>
<feBlend mode="normal" in="SourceGraphic" in2="BackgroundImageFix" result="shape"/>
<feGaussianBlur stdDeviation="2.75" result="effect1_foregroundBlur_94_1508"/>
</filter>
<filter id="filter9_f_94_1508" x="-37.2712" y="544.244" width="110.798" height="59.2376" filterUnits="userSpaceOnUse" color-interpolation-filters="sRGB">
<feFlood flood-opacity="0" result="BackgroundImageFix"/>
<feBlend mode="normal" in="SourceGraphic" in2="BackgroundImageFix" result="shape"/>
<feGaussianBlur stdDeviation="2.75" result="effect1_foregroundBlur_94_1508"/>
</filter>
<filter id="filter10_f_94_1508" x="87.4585" y="420.407" width="176.7" height="98.6886" filterUnits="userSpaceOnUse" color-interpolation-filters="sRGB">
<feFlood flood-opacity="0" result="BackgroundImageFix"/>
<feBlend mode="normal" in="SourceGraphic" in2="BackgroundImageFix" result="shape"/>
<feGaussianBlur stdDeviation="2.75" result="effect1_foregroundBlur_94_1508"/>
</filter>
<filter id="filter11_f_94_1508" x="378.14" y="551.686" width="87.8411" height="47.0582" filterUnits="userSpaceOnUse" color-interpolation-filters="sRGB">
<feFlood flood-opacity="0" result="BackgroundImageFix"/>
<feBlend mode="normal" in="SourceGraphic" in2="BackgroundImageFix" result="shape"/>
<feGaussianBlur stdDeviation="2.75" result="effect1_foregroundBlur_94_1508"/>
</filter>
<filter id="filter12_f_94_1508" x="365.377" y="616.929" width="61.5139" height="40.1344" filterUnits="userSpaceOnUse" color-interpolation-filters="sRGB">
<feFlood flood-opacity="0" result="BackgroundImageFix"/>
<feBlend mode="normal" in="SourceGraphic" in2="BackgroundImageFix" result="shape"/>
<feGaussianBlur stdDeviation="2.75" result="effect1_foregroundBlur_94_1508"/>
</filter>
<filter id="filter13_f_94_1508" x="379.099" y="712.614" width="87.8411" height="41.6035" filterUnits="userSpaceOnUse" color-interpolation-filters="sRGB">
<feFlood flood-opacity="0" result="BackgroundImageFix"/>
<feBlend mode="normal" in="SourceGraphic" in2="BackgroundImageFix" result="shape"/>
<feGaussianBlur stdDeviation="2.75" result="effect1_foregroundBlur_94_1508"/>
</filter>
<filter id="filter14_f_94_1508" x="295.033" y="633.539" width="73.9148" height="93.5716" filterUnits="userSpaceOnUse" color-interpolation-filters="sRGB">
<feFlood flood-opacity="0" result="BackgroundImageFix"/>
<feBlend mode="normal" in="SourceGraphic" in2="BackgroundImageFix" result="shape"/>
<feGaussianBlur stdDeviation="2.75" result="effect1_foregroundBlur_94_1508"/>
</filter>
<filter id="filter15_f_94_1508" x="63.4268" y="592.731" width="98.5547" height="87.2812" filterUnits="userSpaceOnUse" color-interpolation-filters="sRGB">
<feFlood flood-opacity="0" result="BackgroundImageFix"/>
<feBlend mode="normal" in="SourceGraphic" in2="BackgroundImageFix" result="shape"/>
<feGaussianBlur stdDeviation="2.75" result="effect1_foregroundBlur_94_1508"/>
</filter>
<filter id="filter16_f_94_1508" x="-45.1702" y="711.362" width="113.941" height="56.8936" filterUnits="userSpaceOnUse" color-interpolation-filters="sRGB">
<feFlood flood-opacity="0" result="BackgroundImageFix"/>
<feBlend mode="normal" in="SourceGraphic" in2="BackgroundImageFix" result="shape"/>
<feGaussianBlur stdDeviation="2.75" result="effect1_foregroundBlur_94_1508"/>
</filter>
<filter id="filter17_f_94_1508" x="262.205" y="757.458" width="137.301" height="85.8782" filterUnits="userSpaceOnUse" color-interpolation-filters="sRGB">
<feFlood flood-opacity="0" result="BackgroundImageFix"/>
<feBlend mode="normal" in="SourceGraphic" in2="BackgroundImageFix" result="shape"/>
<feGaussianBlur stdDeviation="2.75" result="effect1_foregroundBlur_94_1508"/>
</filter>
<filter id="filter18_f_94_1508" x="81.4072" y="761.214" width="132.511" height="65.0375" filterUnits="userSpaceOnUse" color-interpolation-filters="sRGB">
<feFlood flood-opacity="0" result="BackgroundImageFix"/>
<feBlend mode="normal" in="SourceGraphic" in2="BackgroundImageFix" result="shape"/>
<feGaussianBlur stdDeviation="2.75" result="effect1_foregroundBlur_94_1508"/>
</filter>
<filter id="filter19_f_94_1508" x="194.962" y="703.75" width="78.1086" height="53.2932" filterUnits="userSpaceOnUse" color-interpolation-filters="sRGB">
<feFlood flood-opacity="0" result="BackgroundImageFix"/>
<feBlend mode="normal" in="SourceGraphic" in2="BackgroundImageFix" result="shape"/>
<feGaussianBlur stdDeviation="2.75" result="effect1_foregroundBlur_94_1508"/>
</filter>
<filter id="filter20_f_94_1508" x="374.347" y="305.936" width="168.129" height="104.848" filterUnits="userSpaceOnUse" color-interpolation-filters="sRGB">
<feFlood flood-opacity="0" result="BackgroundImageFix"/>
<feBlend mode="normal" in="SourceGraphic" in2="BackgroundImageFix" result="shape"/>
<feGaussianBlur stdDeviation="2.75" result="effect1_foregroundBlur_94_1508"/>
</filter>
<filter id="filter21_f_94_1508" x="359.159" y="164.241" width="127.273" height="56.9483" filterUnits="userSpaceOnUse" color-interpolation-filters="sRGB">
<feFlood flood-opacity="0" result="BackgroundImageFix"/>
<feBlend mode="normal" in="SourceGraphic" in2="BackgroundImageFix" result="shape"/>
<feGaussianBlur stdDeviation="2.75" result="effect1_foregroundBlur_94_1508"/>
</filter>
<filter id="filter22_f_94_1508" x="325.689" y="70.6895" width="102.517" height="88.8692" filterUnits="userSpaceOnUse" color-interpolation-filters="sRGB">
<feFlood flood-opacity="0" result="BackgroundImageFix"/>
<feBlend mode="normal" in="SourceGraphic" in2="BackgroundImageFix" result="shape"/>
<feGaussianBlur stdDeviation="2.75" result="effect1_foregroundBlur_94_1508"/>
</filter>
</defs>
</svg>
