<svg width="175" height="57" viewBox="0 0 175 57" fill="none" xmlns="http://www.w3.org/2000/svg">
<rect width="175" height="57" rx="26" fill="#192043"/>
<mask id="mask0_60_771" style="mask-type:luminance" maskUnits="userSpaceOnUse" x="54" y="4" width="68" height="52">
<path d="M121.355 4H54V55.9323H121.355V4Z" fill="white"/>
</mask>
<g mask="url(#mask0_60_771)">
<path d="M65.7268 49.2069H61.5872L61.5371 16.2483H55.1424V13.0226H65.7268V49.2069Z" fill="#EEF5FF"/>
<path d="M75.9065 39.5498V13.0226H79.8456V38.528L75.9065 39.5498ZM82.4516 13.0226H86.2303V38.8786C86.2303 40.8571 85.7016 42.4149 84.6467 43.5569C83.5892 44.6989 81.9354 45.2699 79.6852 45.2699H69.3615V13.0226H73.2504V42.1043H79.4848C80.5723 42.1043 81.339 41.8138 81.7801 41.2328C82.2261 40.6517 82.4516 39.8678 82.4516 38.8786V13.0226Z" fill="#EEF5FF"/>
<path d="M90.1189 13.0226H100.954C101.6 13.0226 102.157 13.253 102.618 13.7138C103.079 14.1747 103.309 14.7457 103.309 15.4269V45.2699H96.7643L96.9647 42.1043H99.3201V16.2483H95.1806L93.8976 45.2699H89.8082L90.991 19.0533L92.7249 16.2483H90.1189V13.0226Z" fill="#EEF5FF"/>
<path d="M111.184 45.2699H106.994V21.6079L111.184 20.9968V45.2699ZM117.167 13.0226C117.814 13.0226 118.332 13.238 118.721 13.6638C119.114 14.092 119.312 14.6806 119.312 15.4269V45.2699H115.123V16.2483H106.783V13.0226H117.167Z" fill="#EEF5FF"/>
</g>
</svg>
