<svg width="448" height="373" viewBox="0 0 448 373" fill="none" xmlns="http://www.w3.org/2000/svg">
<g filter="url(#filter0_d_94_1472)">
<path d="M253.828 294.884C238.488 302.114 231.763 343.689 225.053 344.973C218.343 346.256 211.599 302.23 196.278 294.884C128.571 262.421 121.801 306.469 118.415 300.777C115.03 295.085 121.801 283.046 94.7182 250.689C65.6336 215.939 14.2388 222.058 6.70015 215.332C-0.838446 208.606 54.0945 120.995 94.7182 94.5307C104.701 88.0276 121.801 88.6379 121.801 88.6379C121.801 88.6379 138.54 133.238 155.654 141.673C167.503 147.513 186.122 156.405 186.122 156.405C186.122 156.405 183.721 97.9093 191.2 100.423C198.679 102.938 200.515 124.669 209.819 126.941C221.667 129.834 228.438 129.834 240.287 126.941C249.59 124.669 250.443 106.316 258.906 100.423C267.369 94.5307 267.369 156.405 267.369 156.405C267.369 156.405 284.296 147.513 294.451 141.673C311.34 131.961 328.305 88.6379 328.305 88.6379C328.305 88.6379 346.844 83.4312 357.08 91.5843C397.703 123.942 446.18 206.015 441.713 215.332C437.245 224.65 388.078 225.346 358.772 253.635C328.305 283.046 334.633 297.081 329.997 300.777C325.362 304.473 316.456 265.367 253.828 294.884Z" fill="#192043"/>
</g>
<path d="M311 265.022L299.747 266.533L282.933 188.166L286.675 180.249L276.935 181.53L275.653 171.949L300.619 168.619L301.901 178.2L294.877 179.148C293.865 179.289 293.198 179.532 292.878 179.891C292.551 180.237 292.5 180.807 292.724 181.607L311 265.022Z" fill="#EEF5FF"/>
<path d="M238.99 174.411L259.572 173.514L262.905 251.779C263.161 257.812 261.943 262.481 259.265 265.793C256.599 269.091 251.524 270.891 244.039 271.198L229.173 271.839L219.663 175.23L232.095 174.692L240.118 261.822L242.553 261.719C245.526 261.604 247.609 261.053 248.807 260.08C249.999 259.093 250.511 256.762 250.345 253.086L247.551 183.71L239.4 184.069L238.99 174.411Z" fill="#EEF5FF"/>
<path d="M182.53 198.942L187.836 187.977L181.223 187.67L181.889 173.554L194.321 174.143L193.655 188.105L188.81 199.249L182.53 198.942ZM198.012 199.685L203.318 188.72L196.731 188.387L197.397 174.271L209.829 174.886L209.162 188.848L204.164 199.967L198.012 199.685Z" fill="#EEF5FF"/>
<path d="M154.609 268.295L142.126 266.681L153.328 180.141L137 178.04L138.23 168.459L167.041 172.174L154.609 268.295Z" fill="#EEF5FF"/>
<path d="M278.772 4.07416L312 10.701L295.824 91.632L285.822 89.6325L300.378 16.7946L289.728 14.6809L276.448 81.1205C275.595 85.3812 272.99 87.0808 268.636 86.2048L259.377 84.3577L260.958 76.3979L266.598 77.5214L278.486 18.1466L283.307 13.386L277.153 12.1673L278.772 4.07416Z" fill="black"/>
<path d="M255.493 84.5426L244.766 83.819L249.796 9.70526L235.85 8.75313L236.421 0.526733L261.094 2.20248L255.493 84.5426Z" fill="black"/>
<path d="M211.902 83.5798L199.46 84.0749L202.547 75.8295L214.569 75.3534L211.959 9.23756L202.166 9.61841L201.842 1.37297L216.341 0.801691C218.346 0.72552 219.737 1.11589 220.514 1.96329C221.285 2.80116 221.714 4.0913 221.79 5.82893L224.839 83.0657L216.855 83.3894L214.76 76.9149L211.902 83.5798Z" fill="black"/>
<path d="M177.166 4.16442L187.664 2.81239L198.123 84.6765L187.625 86.0285L177.166 4.16442Z" fill="black"/>
<path d="M147.832 9.57842L163.398 6.15075L176.087 81.2928C176.468 83.0066 176.13 84.6252 175.077 86.1487C174.034 87.6625 172.619 88.6147 170.828 89.005L158.711 91.69L156.958 83.7683L166.008 81.7689L154.957 16.4338L140.001 19.7281L139.887 19.7472L136 2.13277L145.717 0L147.832 9.57842Z" fill="black"/>
<defs>
<filter id="filter0_d_94_1472" x="-21.8" y="59.2" width="491.6" height="313.6" filterUnits="userSpaceOnUse" color-interpolation-filters="sRGB">
<feFlood flood-opacity="0" result="BackgroundImageFix"/>
<feColorMatrix in="SourceAlpha" type="matrix" values="0 0 0 0 0 0 0 0 0 0 0 0 0 0 0 0 0 0 127 0" result="hardAlpha"/>
<feOffset/>
<feGaussianBlur stdDeviation="13.9"/>
<feComposite in2="hardAlpha" operator="out"/>
<feColorMatrix type="matrix" values="0 0 0 0 0 0 0 0 0 0 0 0 0 0 0 0 0 0 0.25 0"/>
<feBlend mode="normal" in2="BackgroundImageFix" result="effect1_dropShadow_94_1472"/>
<feBlend mode="normal" in="SourceGraphic" in2="effect1_dropShadow_94_1472" result="shape"/>
</filter>
</defs>
</svg>
