<svg width="420" height="83" viewBox="0 0 420 83" fill="none" xmlns="http://www.w3.org/2000/svg">
<path d="M0 37.8C0 29.5157 6.71573 22.8 15 22.8H405C413.284 22.8 420 29.5157 420 37.8V82.8H0V37.8Z" fill="#EEF5FF"/>
<rect x="26" y="34.8" width="383" height="12.7" rx="6.35" fill="#FBFDFF"/>
<rect x="26" y="34.8" width="288" height="13" rx="6.5" fill="#192043"/>
<g filter="url(#filter0_d_57_858)">
<path d="M314.378 48.7496C312.127 49.4781 311.139 53.6679 310.155 53.7972C309.17 53.9266 308.18 49.4899 305.931 48.7496C295.992 45.4781 294.998 49.917 294.501 49.3434C294.004 48.7698 294.998 47.5565 291.023 44.2957C286.754 40.7939 279.209 41.4105 278.103 40.7327C276.996 40.0549 285.06 31.2259 291.023 28.5589C292.488 27.9036 294.998 27.9651 294.998 27.9651C294.998 27.9651 297.455 32.4596 299.968 33.3097C301.707 33.8982 304.44 34.7943 304.44 34.7943C304.44 34.7943 304.087 28.8994 305.185 29.1528C306.283 29.4061 306.553 31.5961 307.918 31.825C309.658 32.1166 310.651 32.1166 312.391 31.825C313.756 31.5961 313.881 29.7466 315.124 29.1528C316.366 28.5589 316.366 34.7943 316.366 34.7943C316.366 34.7943 318.851 33.8982 320.342 33.3097C322.821 32.331 325.311 27.9651 325.311 27.9651C325.311 27.9651 328.032 27.4404 329.535 28.262C335.498 31.5228 342.614 39.7937 341.958 40.7327C341.302 41.6717 334.085 41.7418 329.783 44.5927C325.311 47.5565 326.24 48.9709 325.559 49.3434C324.879 49.7159 323.572 45.775 314.378 48.7496Z" fill="#192043"/>
</g>
<defs>
<filter id="filter0_d_57_858" x="250.2" y="3.8147e-06" width="119.6" height="81.6" filterUnits="userSpaceOnUse" color-interpolation-filters="sRGB">
<feFlood flood-opacity="0" result="BackgroundImageFix"/>
<feColorMatrix in="SourceAlpha" type="matrix" values="0 0 0 0 0 0 0 0 0 0 0 0 0 0 0 0 0 0 127 0" result="hardAlpha"/>
<feOffset/>
<feGaussianBlur stdDeviation="13.9"/>
<feComposite in2="hardAlpha" operator="out"/>
<feColorMatrix type="matrix" values="0 0 0 0 0 0 0 0 0 0 0 0 0 0 0 0 0 0 0.25 0"/>
<feBlend mode="normal" in2="BackgroundImageFix" result="effect1_dropShadow_57_858"/>
<feBlend mode="normal" in="SourceGraphic" in2="effect1_dropShadow_57_858" result="shape"/>
</filter>
</defs>
</svg>
