<svg width="420" height="83" viewBox="0 0 420 83" fill="none" xmlns="http://www.w3.org/2000/svg">
<path d="M0 37.8C0 29.5157 6.71573 22.8 15 22.8H405C413.284 22.8 420 29.5157 420 37.8V82.8H0V37.8Z" fill="#EEF5FF"/>
<rect x="26" y="34.8" width="383" height="12.7" rx="6.35" fill="#FBFDFF"/>
<rect x="26" y="34.8" width="174" height="13" rx="6.5" fill="#192043"/>
<g filter="url(#filter0_d_15_1179)">
<path d="M200.378 48.7496C198.127 49.4781 197.139 53.6679 196.155 53.7972C195.17 53.9266 194.18 49.4899 191.931 48.7496C181.992 45.4781 180.998 49.917 180.501 49.3434C180.004 48.7698 180.998 47.5565 177.023 44.2957C172.754 40.7939 165.209 41.4105 164.103 40.7327C162.996 40.0549 171.06 31.2259 177.023 28.5589C178.488 27.9036 180.998 27.9651 180.998 27.9651C180.998 27.9651 183.455 32.4596 185.968 33.3097C187.707 33.8982 190.44 34.7943 190.44 34.7943C190.44 34.7943 190.087 28.8994 191.185 29.1528C192.283 29.4061 192.553 31.5961 193.918 31.825C195.658 32.1166 196.651 32.1166 198.391 31.825C199.756 31.5961 199.881 29.7466 201.124 29.1528C202.366 28.5589 202.366 34.7943 202.366 34.7943C202.366 34.7943 204.851 33.8982 206.342 33.3097C208.821 32.331 211.311 27.9651 211.311 27.9651C211.311 27.9651 214.032 27.4404 215.535 28.262C221.498 31.5228 228.614 39.7937 227.958 40.7327C227.302 41.6717 220.085 41.7418 215.783 44.5927C211.311 47.5565 212.24 48.9709 211.559 49.3434C210.879 49.7159 209.572 45.775 200.378 48.7496Z" fill="#192043"/>
</g>
<defs>
<filter id="filter0_d_15_1179" x="136.2" y="3.8147e-06" width="119.6" height="81.6" filterUnits="userSpaceOnUse" color-interpolation-filters="sRGB">
<feFlood flood-opacity="0" result="BackgroundImageFix"/>
<feColorMatrix in="SourceAlpha" type="matrix" values="0 0 0 0 0 0 0 0 0 0 0 0 0 0 0 0 0 0 127 0" result="hardAlpha"/>
<feOffset/>
<feGaussianBlur stdDeviation="13.9"/>
<feComposite in2="hardAlpha" operator="out"/>
<feColorMatrix type="matrix" values="0 0 0 0 0 0 0 0 0 0 0 0 0 0 0 0 0 0 0.25 0"/>
<feBlend mode="normal" in2="BackgroundImageFix" result="effect1_dropShadow_15_1179"/>
<feBlend mode="normal" in="SourceGraphic" in2="effect1_dropShadow_15_1179" result="shape"/>
</filter>
</defs>
</svg>
