<svg width="435" height="74" viewBox="0 0 435 74" fill="none" xmlns="http://www.w3.org/2000/svg">
<path d="M14.8 29C14.8 20.7157 21.5158 14 29.8 14H419.8C428.084 14 434.8 20.7157 434.8 29V74H14.8V29Z" fill="#EEF5FF"/>
<rect x="40.8" y="26" width="383" height="12.7" rx="6.35" fill="#FBFDFF"/>
<g filter="url(#filter0_d_7_178)">
<path d="M64.7469 39.9496C62.46 40.6781 61.4573 44.8679 60.457 44.9972C59.4567 45.1266 58.4513 40.6899 56.1671 39.9496C46.0733 36.6781 45.0639 41.117 44.5592 40.5434C44.0545 39.9698 45.0639 38.7565 41.0264 35.4957C36.6904 31.9939 29.0283 32.6105 27.9044 31.9327C26.7806 31.2549 34.9701 22.4259 41.0264 19.7589C42.5146 19.1036 45.0639 19.1651 45.0639 19.1651C45.0639 19.1651 47.5595 23.6596 50.1108 24.5096C51.8773 25.0982 54.6531 25.9943 54.6531 25.9943C54.6531 25.9943 54.2951 20.0994 55.4101 20.3527C56.5251 20.6061 56.7989 22.7961 58.1859 23.025C59.9523 23.3166 60.9617 23.3166 62.7281 23.025C64.1151 22.7961 64.2422 20.9466 65.5039 20.3527C66.7656 19.7589 66.7656 25.9943 66.7656 25.9943C66.7656 25.9943 69.2891 25.0982 70.8031 24.5096C73.3209 23.531 75.85 19.1651 75.85 19.1651C75.85 19.1651 78.6139 18.6404 80.1399 19.462C86.1962 22.7228 93.4232 30.9937 92.7572 31.9327C92.0912 32.8717 84.7613 32.9418 80.3923 35.7927C75.8501 38.7565 76.7934 40.1709 76.1024 40.5434C75.4114 40.9159 74.0837 36.975 64.7469 39.9496Z" fill="#192043"/>
</g>
<defs>
<filter id="filter0_d_7_178" x="4.95911e-05" y="-8.8" width="120.6" height="81.6" filterUnits="userSpaceOnUse" color-interpolation-filters="sRGB">
<feFlood flood-opacity="0" result="BackgroundImageFix"/>
<feColorMatrix in="SourceAlpha" type="matrix" values="0 0 0 0 0 0 0 0 0 0 0 0 0 0 0 0 0 0 127 0" result="hardAlpha"/>
<feOffset/>
<feGaussianBlur stdDeviation="13.9"/>
<feComposite in2="hardAlpha" operator="out"/>
<feColorMatrix type="matrix" values="0 0 0 0 0 0 0 0 0 0 0 0 0 0 0 0 0 0 0.25 0"/>
<feBlend mode="normal" in2="BackgroundImageFix" result="effect1_dropShadow_7_178"/>
<feBlend mode="normal" in="SourceGraphic" in2="effect1_dropShadow_7_178" result="shape"/>
</filter>
</defs>
</svg>
