<svg width="420" height="83" viewBox="0 0 420 83" fill="none" xmlns="http://www.w3.org/2000/svg">
<path d="M0 37.8C0 29.5157 6.71573 22.8 15 22.8H405C413.284 22.8 420 29.5157 420 37.8V82.8H0V37.8Z" fill="#EEF5FF"/>
<rect x="26" y="34.8" width="383" height="12.7" rx="6.35" fill="#F9FBFD"/>
<rect x="26" y="34.8" width="232" height="13" rx="6.5" fill="#191F42"/>
<g filter="url(#filter0_d_15_1182)">
<path d="M256.947 48.7496C254.66 49.4781 253.657 53.6679 252.657 53.7972C251.657 53.9266 250.651 49.4899 248.367 48.7496C238.273 45.4781 237.264 49.917 236.759 49.3434C236.254 48.7698 237.264 47.5565 233.226 44.2957C228.89 40.7939 221.228 41.4105 220.104 40.7327C218.981 40.0549 227.17 31.2259 233.226 28.5589C234.715 27.9036 237.264 27.9651 237.264 27.9651C237.264 27.9651 239.759 32.4596 242.311 33.3097C244.077 33.8982 246.853 34.7943 246.853 34.7943C246.853 34.7943 246.495 28.8994 247.61 29.1528C248.725 29.4061 248.999 31.5961 250.386 31.825C252.152 32.1166 253.162 32.1166 254.928 31.825C256.315 31.5961 256.442 29.7466 257.704 29.1528C258.966 28.5589 258.966 34.7943 258.966 34.7943C258.966 34.7943 261.489 33.8982 263.003 33.3097C265.521 32.331 268.05 27.9651 268.05 27.9651C268.05 27.9651 270.814 27.4404 272.34 28.262C278.396 31.5228 285.623 39.7937 284.957 40.7327C284.291 41.6717 276.961 41.7418 272.592 44.5927C268.05 47.5565 268.993 48.9709 268.302 49.3434C267.611 49.7159 266.284 45.775 256.947 48.7496Z" fill="#192043"/>
</g>
<defs>
<filter id="filter0_d_15_1182" x="192.2" y="3.8147e-06" width="120.6" height="81.6" filterUnits="userSpaceOnUse" color-interpolation-filters="sRGB">
<feFlood flood-opacity="0" result="BackgroundImageFix"/>
<feColorMatrix in="SourceAlpha" type="matrix" values="0 0 0 0 0 0 0 0 0 0 0 0 0 0 0 0 0 0 127 0" result="hardAlpha"/>
<feOffset/>
<feGaussianBlur stdDeviation="13.9"/>
<feComposite in2="hardAlpha" operator="out"/>
<feColorMatrix type="matrix" values="0 0 0 0 0 0 0 0 0 0 0 0 0 0 0 0 0 0 0.25 0"/>
<feBlend mode="normal" in2="BackgroundImageFix" result="effect1_dropShadow_15_1182"/>
<feBlend mode="normal" in="SourceGraphic" in2="effect1_dropShadow_15_1182" result="shape"/>
</filter>
</defs>
</svg>
