<svg width="420" height="83" viewBox="0 0 420 83" fill="none" xmlns="http://www.w3.org/2000/svg">
<path d="M0 37.8C0 29.5157 6.71573 22.8 15 22.8H405C413.284 22.8 420 29.5157 420 37.8V82.8H0V37.8Z" fill="#EEF5FF"/>
<rect x="26" y="34.8" width="383" height="12.7" rx="6.35" fill="#FBFDFF"/>
<rect x="26" y="34.8" width="128" height="12.7" rx="6.35" fill="#192043"/>
<g filter="url(#filter0_d_7_184)">
<path d="M144.378 48.7496C142.127 49.4781 141.139 53.6679 140.155 53.7972C139.17 53.9266 138.18 49.4899 135.931 48.7496C125.992 45.4781 124.998 49.917 124.501 49.3434C124.004 48.7698 124.998 47.5565 121.023 44.2957C116.754 40.7939 109.209 41.4104 108.103 40.7327C106.996 40.0549 115.06 31.2259 121.023 28.5589C122.488 27.9035 124.998 27.9651 124.998 27.9651C124.998 27.9651 127.455 32.4596 129.968 33.3096C131.707 33.8982 134.44 34.7942 134.44 34.7942C134.44 34.7942 134.087 28.8994 135.185 29.1527C136.283 29.4061 136.553 31.5961 137.918 31.825C139.658 32.1166 140.651 32.1166 142.391 31.825C143.756 31.5961 143.881 29.7466 145.124 29.1527C146.366 28.5589 146.366 34.7942 146.366 34.7942C146.366 34.7942 148.851 33.8982 150.342 33.3096C152.821 32.331 155.311 27.9651 155.311 27.9651C155.311 27.9651 158.032 27.4403 159.535 28.262C165.498 31.5228 172.614 39.7937 171.958 40.7327C171.302 41.6716 164.085 41.7418 159.783 44.5927C155.311 47.5565 156.24 48.9709 155.559 49.3434C154.879 49.7159 153.572 45.775 144.378 48.7496Z" fill="#192043"/>
</g>
<defs>
<filter id="filter0_d_7_184" x="80.2" y="-1.14441e-05" width="119.6" height="81.6" filterUnits="userSpaceOnUse" color-interpolation-filters="sRGB">
<feFlood flood-opacity="0" result="BackgroundImageFix"/>
<feColorMatrix in="SourceAlpha" type="matrix" values="0 0 0 0 0 0 0 0 0 0 0 0 0 0 0 0 0 0 127 0" result="hardAlpha"/>
<feOffset/>
<feGaussianBlur stdDeviation="13.9"/>
<feComposite in2="hardAlpha" operator="out"/>
<feColorMatrix type="matrix" values="0 0 0 0 0 0 0 0 0 0 0 0 0 0 0 0 0 0 0.25 0"/>
<feBlend mode="normal" in2="BackgroundImageFix" result="effect1_dropShadow_7_184"/>
<feBlend mode="normal" in="SourceGraphic" in2="effect1_dropShadow_7_184" result="shape"/>
</filter>
</defs>
</svg>
