<svg width="47" height="26" viewBox="0 0 47 26" fill="none" xmlns="http://www.w3.org/2000/svg">
<path d="M6.19949 2.67084H10.9307V20.8156C10.9307 22.2147 10.6059 23.2821 9.95914 24.0193C9.31097 24.7536 8.12818 25.1201 6.41219 25.1201H2.98597L1.75 2.67084H4.61285L5.60163 22.9128H6.165C6.84622 22.9128 7.32767 22.8071 7.60792 22.5942C7.89104 22.3827 8.03332 21.8497 8.03332 20.9952L8.06782 4.91286H6.19949V2.67084Z" fill="#EEF5FF"/>
<path d="M16.2626 14.2691L13.3652 14.8021V2.67084H16.2626V14.2691Z" fill="#EEF5FF"/>
<path d="M20.6013 2.67073H24.907L23.8838 23.3761C23.8838 23.8512 23.7012 24.2611 23.3376 24.6043C22.9726 24.949 22.5443 25.1199 22.0499 25.1199H18.6984V22.9127H21.2049L22.0844 4.91276H17.9224V0H20.6013V2.67073Z" fill="#EEF5FF"/>
<path d="M32.6052 2.67084V21.7425C32.6052 22.1683 32.6929 22.4638 32.8697 22.6289C33.045 22.7955 33.4287 22.8664 34.0194 22.8433V25.1201H26.2529V22.9128H30.7369L29.7079 21.2791V4.91286H26.2529V2.67084H32.6052Z" fill="#EEF5FF"/>
<path d="M35.6038 2.67084H44.75V25.1201H41.9963V4.91286H39.0645V23.3415C39.0645 24.5277 38.4638 25.1201 37.2652 25.1201H34.7242V22.9128H36.2764V6.44231L37.2997 4.91286H35.6038V2.67084Z" fill="#EEF5FF"/>
</svg>
