<svg width="321" height="103" viewBox="0 0 321 103" fill="none" xmlns="http://www.w3.org/2000/svg">
<rect width="321" height="103" rx="26" fill="#192043"/>
<path d="M140.37 37.13C140.915 36.3299 141.756 35.7791 142.707 35.5987C143.658 35.4183 144.642 35.6232 145.442 36.1682C146.242 36.7132 146.793 37.5537 146.973 38.5048C147.153 39.456 146.949 40.4398 146.404 41.2399C144.113 44.6096 143.016 48.6491 143.287 52.7148C143.558 56.7804 145.182 60.6384 147.9 63.674C150.618 66.7096 154.274 68.7483 158.285 69.4653C162.296 70.1822 166.432 69.5362 170.033 67.6302C173.635 65.7241 176.495 62.6677 178.158 58.9477C179.82 55.2278 180.191 51.0583 179.209 47.1037C178.227 43.149 175.951 39.6365 172.741 37.1259C169.532 34.6152 165.575 33.2508 161.5 33.25C160.532 33.25 159.604 32.8655 158.919 32.181C158.235 31.4964 157.85 30.5681 157.85 29.6C157.85 28.632 158.235 27.7036 158.919 27.0191C159.604 26.3346 160.532 25.95 161.5 25.95C167.205 25.9509 172.745 27.861 177.239 31.3761C181.732 34.8912 184.92 39.809 186.294 45.346C187.668 50.883 187.149 56.7205 184.821 61.9286C182.492 67.1366 178.488 71.4156 173.445 74.0836C168.403 76.7517 162.612 77.6554 156.996 76.6507C151.381 75.646 146.263 72.7907 142.458 68.5398C138.653 64.2889 136.381 58.887 136.002 53.1946C135.624 47.5023 137.162 41.847 140.37 37.13Z" fill="#EEF5FF"/>
<path d="M170.647 38.5827C170.905 38.9865 171.082 39.4373 171.166 39.9092C171.25 40.3812 171.24 40.8651 171.137 41.3333C171.034 41.8016 170.84 42.245 170.566 42.6382C170.292 43.0314 169.943 43.3668 169.539 43.6251C169.135 43.8835 168.685 44.0598 168.213 44.1439C167.741 44.2281 167.257 44.2185 166.788 44.1156C166.32 44.0127 165.877 43.8186 165.484 43.5444C165.09 43.2702 164.755 42.9212 164.497 42.5174L156.368 29.8081C155.863 28.9927 155.7 28.0116 155.913 27.0767C156.126 26.1418 156.698 25.3282 157.506 24.8118C158.314 24.2954 159.293 24.1177 160.231 24.317C161.168 24.5163 161.99 25.0767 162.518 25.877L170.647 38.5827Z" fill="#EEF5FF"/>
<path d="M170.297 19.0041C171.177 18.6315 172.168 18.619 173.057 18.9693C173.946 19.3197 174.663 20.0049 175.052 20.8777C175.442 21.7505 175.474 22.7413 175.141 23.6372C174.808 24.5331 174.136 25.2626 173.271 25.669L160.934 31.1732C160.495 31.3795 160.019 31.4962 159.534 31.5164C159.049 31.5366 158.565 31.4599 158.111 31.2908C157.656 31.1217 157.239 30.8636 156.885 30.5316C156.531 30.1996 156.247 29.8003 156.049 29.3572C155.852 28.914 155.744 28.4359 155.733 27.9508C155.722 27.4656 155.809 26.9832 155.986 26.5317C156.164 26.0802 156.43 25.6687 156.769 25.3213C157.108 24.9738 157.513 24.6974 157.96 24.5083L170.297 19.0041Z" fill="#EEF5FF"/>
</svg>
