<svg width="321" height="105" viewBox="0 0 321 105" fill="none" xmlns="http://www.w3.org/2000/svg">
<rect width="321" height="103" rx="26" fill="#192043"/>
<mask id="mask0_94_1550" style="mask-type:luminance" maskUnits="userSpaceOnUse" x="76" y="5" width="173" height="100">
<path d="M249 5.40576H76V104.736H249V5.40576Z" fill="white"/>
</mask>
<g mask="url(#mask0_94_1550)">
<path d="M88.5619 84.3849H80.5483V39.1266L88.5619 37.9578V84.3849ZM100.007 22.7056C101.244 22.7056 102.236 23.1176 102.979 23.9319C103.731 24.7511 104.11 25.8768 104.11 27.3043V84.3849H96.0961V28.8755H80.1458V22.7056H100.007Z" fill="#EEF5FF"/>
<path d="M116.908 22.7056H128.852L126.014 79.5946C126.014 80.8976 125.506 82.0233 124.5 82.967C123.488 83.9154 122.3 84.3849 120.934 84.3849H111.636V78.33H118.576L121.03 28.8755H109.489V15.3861H116.908V22.7056Z" fill="#EEF5FF"/>
<path d="M133.16 22.7056H154.363C155.537 22.7056 156.515 23.1368 157.296 23.9894C158.087 24.8325 158.485 25.8768 158.485 27.1127V84.3849H150.567V28.8755H143.224V84.3849H135.307V32.7843L138.432 28.8755H133.16V22.7056Z" fill="#EEF5FF"/>
<path d="M165.321 22.7056H190.646V84.3849H183.016V28.8755H174.907V79.4988C174.907 82.7562 173.243 84.3849 169.922 84.3849H162.886V78.33H167.181V33.0717L170.018 28.8755H165.321V22.7056Z" fill="#EEF5FF"/>
<path d="M205.812 84.3849H197.799V39.1266L205.812 37.9578V84.3849ZM217.257 22.7056C218.494 22.7056 219.486 23.1176 220.229 23.9319C220.981 24.7511 221.36 25.8768 221.36 27.3043V84.3849H213.346V28.8755H197.396V22.7056H217.257Z" fill="#EEF5FF"/>
<path d="M234.158 22.7056H246.102L243.265 79.5946C243.265 80.8976 242.756 82.0233 241.75 82.967C240.739 83.9154 239.55 84.3849 238.184 84.3849H228.886V78.33H235.826L238.28 28.8755H226.739V15.3861H234.158V22.7056Z" fill="#EEF5FF"/>
</g>
</svg>
