<svg width="175" height="57" viewBox="0 0 175 57" fill="none" xmlns="http://www.w3.org/2000/svg">
<rect width="175" height="57" rx="26" fill="#9296A9"/>
<mask id="mask0_202_1490" style="mask-type:luminance" maskUnits="userSpaceOnUse" x="54" y="4" width="68" height="52">
<path d="M121.355 4H54V55.9323H121.355V4Z" fill="white"/>
</mask>
<g mask="url(#mask0_202_1490)">
<path d="M60.7773 45.2657H56.5877V21.6036L60.7773 20.9926V45.2657ZM66.7611 13.0184C67.4076 13.0184 67.9263 13.2338 68.3147 13.6595C68.7081 14.0878 68.9061 14.6763 68.9061 15.4227V45.2657H64.7164V16.2441H56.3772V13.0184H66.7611Z" fill="#EEF5FF"/>
<path d="M71.9188 13.0184H87.204L85.6705 42.7112C85.5026 44.4142 84.7534 45.2657 83.4253 45.2657H79.797V42.1001H81.6913L82.9142 16.2441H77.5919V49.2027H73.4524V18.7486L74.9358 16.2441H71.9188V13.0184Z" fill="#EEF5FF"/>
<path d="M93.6991 29.678L89.5095 30.4494V13.0184H93.6991V29.678Z" fill="#EEF5FF"/>
<path d="M95.8453 13.0184H106.991V16.2441H105.768C105.768 16.2441 105.62 16.2942 105.327 16.3944C105.039 16.4946 104.896 16.75 104.896 17.1557V45.2657H100.757V18.1275L102.491 16.2441H95.8453V13.0184Z" fill="#EEF5FF"/>
<path d="M118.343 13.0184V40.4071C118.343 41.0232 118.469 41.4489 118.724 41.6894C118.985 41.9298 119.539 42.035 120.388 41.9999V45.2657H109.142V42.1001H115.637L114.154 39.7459V16.2441H109.142V13.0184H118.343Z" fill="#EEF5FF"/>
</g>
</svg>
